<svg width="44" height="44" viewBox="0 0 44 44" fill="none" xmlns="http://www.w3.org/2000/svg">
<path d="M28.7999 3.6001V10.8001M14.3999 3.6001V10.8001" stroke="#161616" stroke-width="2.7" stroke-linecap="round" stroke-linejoin="round"/>
<path d="M23.3999 7.19995H19.7999C13.0117 7.19995 9.61757 7.19995 7.50873 9.30878C5.3999 11.4176 5.3999 14.8117 5.3999 21.6V25.2C5.3999 31.9881 5.3999 35.3824 7.50873 37.4911C9.61757 39.6 13.0117 39.6 19.7999 39.6H23.3999C30.1881 39.6 33.5823 39.6 35.691 37.4911C37.7999 35.3824 37.7999 31.9881 37.7999 25.2V21.6C37.7999 14.8117 37.7999 11.4176 35.691 9.30878C33.5823 7.19995 30.1881 7.19995 23.3999 7.19995Z" stroke="#161616" stroke-width="2.7" stroke-linecap="round" stroke-linejoin="round"/>
<path d="M5.3999 18H37.7999" stroke="#161616" stroke-width="2.7" stroke-linecap="round" stroke-linejoin="round"/>
<path d="M21.5998 34.1999C21.5998 34.1999 27.8998 31.3411 27.8998 26.6998C27.8998 24.8773 26.5736 23.3999 24.7498 23.3999C23.2578 23.3999 22.2629 24.0351 21.5998 25.3057C20.9367 24.0351 19.9418 23.3999 18.4498 23.3999C16.6261 23.3999 15.2998 24.8773 15.2998 26.6998C15.2998 31.3411 21.5998 34.1999 21.5998 34.1999Z" stroke="#161616" stroke-width="2.7" stroke-linecap="round" stroke-linejoin="round"/>
</svg>
